<?xml version="1.0" standalone="no"?><!DOCTYPE svg PUBLIC "-//W3C//DTD SVG 1.1//EN" "http://www.w3.org/Graphics/SVG/1.1/DTD/svg11.dtd"><svg t="1646316256908" class="icon" viewBox="0 0 1024 1024" version="1.1" xmlns="http://www.w3.org/2000/svg" p-id="1980" data-darkreader-inline-fill="" xmlns:xlink="http://www.w3.org/1999/xlink" width="200" height="200"><defs><style type="text/css"></style></defs><path d="M0 0h1024v1024H0V0z" fill="#202425" opacity=".01" p-id="1981" data-darkreader-inline-fill="" style="--darkreader-inline-fill:#1a1c1d;"></path><path d="M256 170.666667A119.466667 119.466667 0 0 1 375.466667 51.2h273.066666A119.466667 119.466667 0 0 1 768 170.666667v170.666666a85.333333 85.333333 0 0 1-85.333333 85.333334H341.333333A85.333333 85.333333 0 0 1 256 341.333333V170.666667z m119.466667-17.066667a17.066667 17.066667 0 0 0-17.066667 17.066667v153.6h307.2V170.666667a17.066667 17.066667 0 0 0-17.066667-17.066667h-273.066666zM68.266667 614.4a34.133333 34.133333 0 0 1 34.133333-34.133333h819.2a34.133333 34.133333 0 0 1 34.133333 34.133333v204.8a136.533333 136.533333 0 0 1-136.533333 136.533333H204.8a136.533333 136.533333 0 0 1-136.533333-136.533333v-204.8z" fill="#FF7744" p-id="1982" data-darkreader-inline-fill="" style="--darkreader-inline-fill:#a32d00;"></path><path d="M68.266667 375.466667a136.533333 136.533333 0 0 1 136.533333-136.533334h614.4a136.533333 136.533333 0 0 1 136.533333 136.533334v136.533333a34.133333 34.133333 0 0 1-34.133333 34.133333H102.4a34.133333 34.133333 0 0 1-34.133333-34.133333v-136.533333z" fill="#FFAA44" p-id="1983" data-darkreader-inline-fill="" style="--darkreader-inline-fill:#a35900;"></path><path d="M375.466667 512a34.133333 34.133333 0 0 1 34.133333-34.133333h204.8a34.133333 34.133333 0 0 1 34.133333 34.133333v102.4a34.133333 34.133333 0 0 1-34.133333 34.133333h-204.8a34.133333 34.133333 0 0 1-34.133333-34.133333v-102.4z" fill="#FFFFFF" p-id="1984" data-darkreader-inline-fill="" style="--darkreader-inline-fill:#181a1b;"></path></svg>